<?xml version="1.0" encoding="UTF-8"?>
<svg version="1.1" xmlns="http://www.w3.org/2000/svg" width="357" height="310">
<path d="M0 0 C1.12123735 -0.00311998 2.24247469 -0.00623996 3.39768893 -0.00945449 C7.13241365 -0.01739405 10.86697407 -0.01112669 14.60169983 -0.00482178 C17.28793307 -0.00753332 19.9741552 -0.01102311 22.66038513 -0.01544189 C29.18390947 -0.02430946 35.70738765 -0.02242628 42.23091375 -0.01661661 C47.53099674 -0.01209243 52.83106683 -0.01149048 58.1311512 -0.01366425 C58.88660375 -0.01397071 59.6420563 -0.01427718 60.42040135 -0.01459293 C61.95518982 -0.0152324 63.48997829 -0.01588082 65.02476675 -0.01653811 C79.39512864 -0.02223297 93.76546496 -0.01569537 108.13582266 -0.00493738 C120.47000151 0.00401009 132.80414274 0.00243463 145.13832092 -0.0067749 C159.46953611 -0.01747057 173.80072896 -0.0216971 188.13194758 -0.01555037 C189.65882241 -0.01491328 191.18569725 -0.01428454 192.7125721 -0.01366425 C193.83941723 -0.01320142 193.83941723 -0.01320142 194.98902692 -0.01272924 C200.28718405 -0.01100113 205.58532703 -0.01391963 210.88348198 -0.01862335 C217.33316852 -0.0242238 223.78280637 -0.02273288 230.23248731 -0.01206186 C233.52401866 -0.00679579 236.81545164 -0.00583609 240.10698509 -0.01136017 C243.67003843 -0.01679058 247.23286004 -0.0100121 250.79589844 0 C251.8425676 -0.00446144 252.88923676 -0.00892289 253.96762317 -0.01351953 C254.91839632 -0.00830403 255.86916947 -0.00308854 256.84875393 0.002285 C258.0828779 0.00277206 258.0828779 0.00277206 259.34193367 0.00326896 C261.45350647 0.25396729 261.45350647 0.25396729 264.45350647 2.25396729 C265.46798053 8.06907755 262.77499099 12.94709059 260.45350647 18.12896729 C260.04704895 19.05427246 259.64059143 19.97957764 259.22181702 20.93292236 C255.56374044 29.17940819 251.67129484 37.279994 247.45350647 45.25396729 C246.97655334 46.17306885 246.49960022 47.09217041 246.00819397 48.03912354 C237.2183078 63.8860326 222.71018462 75.61412993 205.70350647 81.56646729 C198.15074859 83.16416607 190.86414818 83.39098308 183.17225647 83.35162354 C182.11816589 83.35020859 181.06407532 83.34879364 179.9780426 83.34733582 C176.63650076 83.34177236 173.2950278 83.3292267 169.95350647 83.31646729 C167.67746578 83.31144756 165.40142402 83.30688548 163.12538147 83.30279541 C157.5680666 83.29181492 152.01079146 83.27511351 146.45350647 83.25396729 C146.45794769 84.55529602 146.46238892 85.85662476 146.46696472 87.1973877 C146.5076114 99.49633655 146.53753906 111.79527168 146.55713081 124.09427261 C146.5675419 130.41641299 146.58165208 136.73849888 146.60438538 143.06060791 C146.62620933 149.16845989 146.6380952 155.27625966 146.64326096 161.38414764 C146.64693961 163.70758638 146.65412286 166.03102244 146.66496658 168.35443878 C146.67960852 171.62341865 146.68147913 174.89218616 146.68055725 178.16119385 C146.6877478 179.10922882 146.69493835 180.05726379 146.7023468 181.0340271 C146.64642217 199.51189347 141.05469939 214.03932378 128.29335022 227.53912354 C118.00229635 237.23251184 104.74130993 242.60899031 92.11756897 248.56646729 C87.57194451 250.71372224 83.06360954 252.92106727 78.57850647 255.19146729 C71.49361181 258.75147263 64.38942563 262.27168969 57.26600647 265.75396729 C56.17755432 266.29529297 55.08910217 266.83661865 53.96766663 267.39434814 C52.42345032 268.14470337 52.42345032 268.14470337 50.84803772 268.91021729 C49.92869446 269.36203369 49.0093512 269.8138501 48.06214905 270.27935791 C45.28444581 271.31712968 43.39082105 271.60252068 40.45350647 271.25396729 C37.79298372 268.59344454 38.200116 267.34458862 38.19281006 263.62741089 C38.18572525 262.4303653 38.17864044 261.2333197 38.17134094 260 C38.17363509 258.66619836 38.17614484 257.33239707 38.17884827 255.99859619 C38.17450258 254.59906746 38.16931991 253.1995411 38.1633606 251.80001831 C38.14993255 247.98950853 38.14939695 244.17909773 38.15192389 240.3685689 C38.1529927 237.18340073 38.14811169 233.99825265 38.14331847 230.81308877 C38.1322066 223.28832083 38.13179295 215.76360276 38.13783264 208.23883057 C38.14385206 200.49660886 38.13161727 192.75456982 38.11026257 185.01237929 C38.09258231 178.35571917 38.08665596 171.6991168 38.08990031 165.0424341 C38.09170575 161.07150911 38.08915298 157.10071392 38.07518578 153.12981033 C38.06251003 149.38527216 38.06464244 145.64101496 38.07759666 141.89648056 C38.08105099 139.88538617 38.06985181 137.87428282 38.05802917 135.86322021 C38.14475265 120.7145654 41.44361987 106.70737007 52.07460022 95.58599854 C60.87774059 86.95631906 60.87774059 86.95631906 66.45350647 84.25396729 C65.45902465 84.24900207 65.45902465 84.24900207 64.44445229 84.24393654 C48.32908793 84.16279502 32.21382702 84.07073193 16.09859657 83.9664402 C8.3054616 83.91627067 0.51233738 83.86982837 -7.28086853 83.83209229 C-14.07165852 83.79920069 -20.86236614 83.75938538 -27.65306532 83.71117723 C-31.2502932 83.68588388 -34.84746624 83.66411113 -38.44475937 83.65062332 C-42.45584242 83.63545452 -46.46666194 83.60483143 -50.47764587 83.57281494 C-51.67670059 83.57065475 -52.87575531 83.56849457 -54.11114502 83.56626892 C-55.19932022 83.55510544 -56.28749542 83.54394196 -57.40864563 83.53244019 C-58.83281579 83.52414405 -58.83281579 83.52414405 -60.28575706 83.51568031 C-62.54649353 83.25396729 -62.54649353 83.25396729 -64.54649353 81.25396729 C-64.97320087 77.17873289 -64.918075 73.09558773 -64.917099 68.99981689 C-64.92139555 66.98736246 -64.95817662 64.9750606 -64.99571228 62.96295166 C-65.03258634 50.54253945 -62.35582256 39.69493846 -55.54649353 29.25396729 C-54.97028259 28.35806885 -54.39407166 27.46217041 -53.80039978 26.53912354 C-47.30881705 17.01726476 -39.68618465 11.10947696 -29.54649353 5.87896729 C-28.906474 5.5448584 -28.26645447 5.21074951 -27.60704041 4.86651611 C-18.7703759 0.53623841 -9.70626272 -0.04199968 0 0 Z " fill="#572CFC" transform="translate(85.54649353027344,34.74603271484375)"/>
<path d="M0 0 C1.21816406 0.03480469 1.21816406 0.03480469 2.4609375 0.0703125 C3.68683594 0.09738281 3.68683594 0.09738281 4.9375 0.125 C5.87722656 0.15980469 5.87722656 0.15980469 6.8359375 0.1953125 C6.8359375 0.8553125 6.8359375 1.5153125 6.8359375 2.1953125 C8.8159375 2.1953125 10.7959375 2.1953125 12.8359375 2.1953125 C12.8359375 2.8553125 12.8359375 3.5153125 12.8359375 4.1953125 C14.4859375 4.1953125 16.1359375 4.1953125 17.8359375 4.1953125 C17.8359375 4.5253125 17.8359375 4.8553125 17.8359375 5.1953125 C20.3109375 5.6903125 20.3109375 5.6903125 22.8359375 6.1953125 C22.8359375 6.8553125 22.8359375 7.5153125 22.8359375 8.1953125 C23.4753125 8.1334375 24.1146875 8.0715625 24.7734375 8.0078125 C30.25948911 8.34369321 35.27860014 10.15708759 39.8359375 13.1953125 C40.7021875 13.3603125 41.5684375 13.5253125 42.4609375 13.6953125 C43.6365625 13.9428125 43.6365625 13.9428125 44.8359375 14.1953125 C45.3309375 15.1853125 45.3309375 15.1853125 45.8359375 16.1953125 C47.49564205 16.56174078 49.16458978 16.88630489 50.8359375 17.1953125 C53.29062174 18.01894143 55.71976203 18.86488033 58.1484375 19.7578125 C58.79361328 19.99177734 59.43878906 20.22574219 60.10351562 20.46679688 C61.68214969 21.03978257 63.25920776 21.61710714 64.8359375 22.1953125 C64.8359375 22.8553125 64.8359375 23.5153125 64.8359375 24.1953125 C66.1559375 24.1953125 67.4759375 24.1953125 68.8359375 24.1953125 C68.8359375 24.8553125 68.8359375 25.5153125 68.8359375 26.1953125 C69.7228125 26.1540625 70.6096875 26.1128125 71.5234375 26.0703125 C74.80870763 26.19428496 76.89043045 26.80919154 79.8359375 28.1953125 C79.8359375 28.8553125 79.8359375 29.5153125 79.8359375 30.1953125 C80.6815625 30.1334375 81.5271875 30.0715625 82.3984375 30.0078125 C86.57213593 30.23546878 89.09026697 31.39739064 92.8359375 33.1953125 C93.1659375 31.2153125 93.4959375 29.2353125 93.8359375 27.1953125 C94.1659375 27.1953125 94.4959375 27.1953125 94.8359375 27.1953125 C94.88700348 34.52356969 94.92182357 41.85178032 94.94580078 49.18017578 C94.95580563 51.6688 94.96941372 54.15741262 94.98681641 56.64599609 C95.01130862 60.24058917 95.02247614 63.83502567 95.03125 67.4296875 C95.04157257 68.52706238 95.05189514 69.62443726 95.06253052 70.75506592 C95.06524026 89.77277236 89.86919604 104.52360139 76.67578125 118.48046875 C66.38472738 128.17385706 53.12374096 133.55033552 40.5 139.5078125 C35.95437554 141.65506746 31.44604057 143.86241248 26.9609375 146.1328125 C19.87604284 149.69281784 12.77185666 153.2130349 5.6484375 156.6953125 C4.55998535 157.23663818 3.4715332 157.77796387 2.35009766 158.33569336 C0.80588135 159.08604858 0.80588135 159.08604858 -0.76953125 159.8515625 C-1.68887451 160.30337891 -2.60821777 160.75519531 -3.55541992 161.22070312 C-6.33312316 162.25847489 -8.22674791 162.54386589 -11.1640625 162.1953125 C-13.1640625 160.1953125 -13.1640625 160.1953125 -13.41295147 157.71707535 C-13.4124067 156.66480633 -13.41186193 155.61253731 -13.41130066 154.52838135 C-13.41549515 153.32266479 -13.41968964 152.11694824 -13.42401123 150.87469482 C-13.41852722 149.53137127 -13.41284422 148.18804852 -13.40698242 146.84472656 C-13.40805494 145.4354646 -13.40999316 144.02620306 -13.41273499 142.61694336 C-13.41759316 138.78202717 -13.40991416 134.94722689 -13.39978194 131.11232471 C-13.39101016 127.10058024 -13.39275877 123.08883951 -13.3931427 119.0770874 C-13.3922052 112.33490049 -13.38351227 105.59275849 -13.36987305 98.85058594 C-13.35417209 91.06058946 -13.34887404 83.27064228 -13.3496086 75.48063111 C-13.35028497 67.18735937 -13.34333544 58.89410659 -13.334162 50.60084057 C-13.33203293 48.21281805 -13.3313211 45.82479859 -13.33092308 43.43677521 C-13.32991601 39.67755845 -13.32378961 35.91838285 -13.31375694 32.15917969 C-13.31084392 30.78135175 -13.30960414 29.40351907 -13.31018448 28.02568817 C-13.31067788 26.14051372 -13.30438186 24.25534117 -13.29777527 22.37017822 C-13.29609942 21.3164011 -13.29442358 20.26262398 -13.29269695 19.17691422 C-13.16046043 16.11182053 -12.7306595 13.20791488 -12.1640625 10.1953125 C-11.1740625 11.6803125 -11.1740625 11.6803125 -10.1640625 13.1953125 C-9.5040625 11.5453125 -8.8440625 9.8953125 -8.1640625 8.1953125 C-6.8440625 8.8553125 -5.5240625 9.5153125 -4.1640625 10.1953125 C-3.8340625 9.5353125 -3.5040625 8.8753125 -3.1640625 8.1953125 C-3.8240625 7.8653125 -4.4840625 7.5353125 -5.1640625 7.1953125 C-4.08619049 0.36878976 -4.08619049 0.36878976 0 0 Z " fill="#0F7AFB" transform="translate(137.1640625,143.8046875)"/>
<path d="M0 0 C0.05076484 7.58053728 0.08576094 15.1610306 0.10986328 22.74169922 C0.11991262 25.31984088 0.13355426 27.89797118 0.15087891 30.47607422 C0.17517367 34.18459889 0.18649396 37.89297268 0.1953125 41.6015625 C0.20563507 42.75177887 0.21595764 43.90199524 0.22659302 45.08706665 C0.22674408 46.16773407 0.22689514 47.24840149 0.22705078 48.36181641 C0.231492 49.30779694 0.23593323 50.25377747 0.24050903 51.22842407 C0 54 0 54 -2 60 C-6.29 59.01 -10.58 58.02 -15 57 C-15 56.34 -15 55.68 -15 55 C-16.485 55.495 -16.485 55.495 -18 56 C-18 55.34 -18 54.68 -18 54 C-20.64 53.67 -23.28 53.34 -26 53 C-26 52.34 -26 51.68 -26 51 C-27.32 51 -28.64 51 -30 51 C-30 50.34 -30 49.68 -30 49 C-31.0828125 48.81630859 -31.0828125 48.81630859 -32.1875 48.62890625 C-35.8478706 47.81040671 -39.07562263 46.34335944 -42.5 44.83984375 C-45.15344634 43.94845162 -47.22114117 43.84617032 -50 44 C-50 43.01 -50 42.02 -50 41 C-50.70125 41.061875 -51.4025 41.12375 -52.125 41.1875 C-55.70440402 40.95406061 -57.78378871 39.60810565 -61 38 C-64.6379581 36.88449351 -68.30965739 35.92586887 -72 35 C-72 34.34 -72 33.68 -72 33 C-73.36125 33.061875 -73.36125 33.061875 -74.75 33.125 C-77.8782046 33.00468444 -79.38614006 32.6085292 -82 31 C-82 30.34 -82 29.68 -82 29 C-83.98 29 -85.96 29 -88 29 C-88 28.34 -88 27.68 -88 27 C-89.45947705 27.06006078 -90.91779272 27.1488689 -92.375 27.25 C-93.18710938 27.29640625 -93.99921875 27.3428125 -94.8359375 27.390625 C-97.15229698 27.7964231 -97.15229698 27.7964231 -98.3125 29.875 C-99.18449471 32.57025639 -98.74837142 34.30586287 -98 37 C-99.98 37.495 -99.98 37.495 -102 38 C-102.33 37.34 -102.66 36.68 -103 36 C-103.99 38.475 -103.99 38.475 -105 41 C-105.33 41 -105.66 41 -106 41 C-106.82314758 32.43926521 -104.08316481 25.12065563 -98.9453125 18.25390625 C-89.96403527 8.04508421 -82.64939366 1.68251288 -69 0 C-63.78048299 -0.3181064 -58.56695313 -0.39574146 -53.33984375 -0.44921875 C-51.85819051 -0.47052104 -50.37654673 -0.49249051 -48.89491272 -0.51509094 C-45.81483326 -0.56013892 -42.73476158 -0.59903347 -39.65454102 -0.63305664 C-35.70333834 -0.67694294 -31.75244753 -0.7336931 -27.80147457 -0.7946043 C-24.75357443 -0.84068376 -21.70562268 -0.88151042 -18.6576252 -0.92057228 C-17.19952204 -0.93962092 -15.74143538 -0.95997828 -14.28336906 -0.98166466 C-12.25660689 -1.01073987 -10.22974097 -1.03229236 -8.20288086 -1.0534668 C-7.05025253 -1.06741989 -5.89762421 -1.08137299 -4.71006775 -1.0957489 C-2 -1 -2 -1 0 0 Z " fill="#121DEE" transform="translate(232,117)"/>
<path d="M0 0 C1.68503106 -0.00256327 1.68503106 -0.00256327 3.40410316 -0.00517833 C7.14584153 -0.00845694 10.88739819 0.00250368 14.62911987 0.01345825 C17.32021995 0.01402272 20.0113091 0.01379305 22.70240784 0.01257324 C28.48465968 0.0115277 34.26686616 0.01776956 40.0491066 0.02904892 C48.4091107 0.04534603 56.76909301 0.05051622 65.12911128 0.0530249 C78.694719 0.05739541 92.26030259 0.070687 105.82589722 0.08963013 C118.99874756 0.10800562 132.17159133 0.12215395 145.3444519 0.13064575 C146.15727446 0.1311712 146.97009702 0.13169665 147.80755056 0.13223802 C151.88549563 0.13484821 155.96344074 0.1373756 160.04138589 0.13986182 C193.83871446 0.16057426 227.63601381 0.19578221 261.43331909 0.24050903 C261.43331909 0.57050903 261.43331909 0.90050903 261.43331909 1.24050903 C260.4880901 1.24474097 259.5428611 1.24897291 258.5689888 1.25333309 C235.15071157 1.35833359 211.73245473 1.46724381 188.3142128 1.57984829 C176.98754841 1.63422844 165.66088112 1.68748365 154.334198 1.73782349 C126.38877229 1.86255941 98.44360095 2.01016378 70.49853516 2.19982147 C66.47882734 2.22704542 62.45911473 2.25308458 58.43939209 2.27802277 C48.20854553 2.34191005 37.97790773 2.41452648 27.74735713 2.51603967 C23.57388615 2.55744236 19.40051364 2.5944567 15.22690582 2.61892509 C11.42114918 2.64151992 7.61579308 2.67793665 3.81027317 2.72584605 C1.78197209 2.74790691 -0.24647078 2.75543801 -2.27487946 2.76252174 C-3.46721947 2.78052015 -4.65955948 2.79851856 -5.88803101 2.81706238 C-6.92007786 2.82646882 -7.95212471 2.83587526 -9.01544571 2.84556675 C-11.96783764 3.30260984 -12.63575577 4.07358608 -14.56668091 6.24050903 C-16.56668091 6.24050903 -18.56668091 6.24050903 -20.56668091 6.24050903 C-25.90932656 7.54508069 -25.90932656 7.54508069 -29.87918091 11.05300903 C-30.10605591 11.77488403 -30.33293091 12.49675903 -30.56668091 13.24050903 C-32.42336279 17.29145131 -34.1243645 20.35340495 -37.56668091 23.24050903 C-38.22668091 23.24050903 -38.88668091 23.24050903 -39.56668091 23.24050903 C-40.06168091 20.76550903 -40.06168091 20.76550903 -40.56668091 18.24050903 C-41.35043091 19.06550903 -42.13418091 19.89050903 -42.94168091 20.74050903 C-45.56668091 23.24050903 -45.56668091 23.24050903 -47.56668091 23.24050903 C-47.56668091 24.56050903 -47.56668091 25.88050903 -47.56668091 27.24050903 C-48.22668091 27.24050903 -48.88668091 27.24050903 -49.56668091 27.24050903 C-49.89668091 28.23050903 -50.22668091 29.22050903 -50.56668091 30.24050903 C-52.12918091 31.92800903 -52.12918091 31.92800903 -53.56668091 33.24050903 C-52.24668091 33.24050903 -50.92668091 33.24050903 -49.56668091 33.24050903 C-50.37918091 35.17800903 -50.37918091 35.17800903 -51.56668091 37.24050903 C-53.05168091 37.73550903 -53.05168091 37.73550903 -54.56668091 38.24050903 C-53.90668091 38.90050903 -53.24668091 39.56050903 -52.56668091 40.24050903 C-53.55668091 40.90050903 -54.54668091 41.56050903 -55.56668091 42.24050903 C-55.61295935 43.90653307 -55.60454992 45.57427264 -55.56668091 47.24050903 C-56.17595608 49.25873306 -56.83148569 51.26467189 -57.56668091 53.24050903 C-56.90668091 53.24050903 -56.24668091 53.24050903 -55.56668091 53.24050903 C-55.56668091 53.90050903 -55.56668091 54.56050903 -55.56668091 55.24050903 C-58.53668091 55.90050903 -61.50668091 56.56050903 -64.56668091 57.24050903 C-64.28213384 44.09960784 -59.02982672 33.83716528 -51.56668091 23.24050903 C-51.12968872 22.60500122 -50.69269653 21.96949341 -50.24246216 21.31472778 C-38.37865146 5.81695705 -18.6409179 -0.10511667 0 0 Z " fill="#CF98FA" transform="translate(85.56668090820313,34.759490966796875)"/>
<path d="M0 0 C11.3261163 -0.02312255 22.65222703 -0.04091464 33.97836208 -0.05181217 C39.23696664 -0.05704119 44.4955551 -0.06413918 49.75415039 -0.07543945 C54.82453127 -0.08626766 59.89489662 -0.09227669 64.96528816 -0.09487724 C66.90426948 -0.09673161 68.84324991 -0.10035245 70.78222466 -0.10573006 C73.4882176 -0.1129396 76.19414556 -0.11399098 78.90014648 -0.11352539 C80.11502495 -0.1189183 80.11502495 -0.1189183 81.35444641 -0.12442017 C86.88594784 -0.11405216 86.88594784 -0.11405216 88 1 C88.76235296 6.96541194 86.37900673 11.56472573 84 16.875 C83.59354248 17.80030518 83.18708496 18.72561035 82.76831055 19.67895508 C79.11023397 27.92544091 75.21778837 36.02602672 71 44 C70.52304687 44.91910156 70.04609375 45.83820313 69.5546875 46.78515625 C60.76480133 62.63206531 46.25667815 74.36016265 29.25 80.3125 C21.69724212 81.91019878 14.41064171 82.13701579 6.71875 82.09765625 C5.66465942 82.0962413 4.61056885 82.09482635 3.52453613 82.09336853 C0.18299429 82.08780508 -3.15847867 82.07525941 -6.5 82.0625 C-8.77604069 82.05748027 -11.05208245 82.0529182 -13.328125 82.04882812 C-18.88543987 82.03784764 -24.44271501 82.02114622 -30 82 C-27.07119067 80.32199006 -25.05556541 79.76338658 -21.69042969 79.86474609 C-20.84986023 79.88491791 -20.00929077 79.90508972 -19.14324951 79.9258728 C-18.24519592 79.95806915 -17.34714233 79.9902655 -16.421875 80.0234375 C-15.4953009 80.04846344 -14.56872681 80.07348938 -13.61407471 80.09927368 C-10.65900399 80.18134687 -7.70461426 80.27798568 -4.75 80.375 C-2.74481935 80.4332525 -0.73961087 80.49055551 1.265625 80.546875 C6.17747395 80.68690692 11.08876251 80.84000218 16 81 C16 80.01 16 79.02 16 78 C20.873261 76.4087311 24.80790596 75.78807779 30 76 C30 75.34 30 74.68 30 74 C30.66 74 31.32 74 32 74 C32 72.68 32 71.36 32 70 C35.02734375 70.04882812 35.02734375 70.04882812 38.0546875 70.09765625 C40.08185404 70.12649242 40.08185404 70.12649242 42 69 C42.99 67.515 42.99 67.515 44 66 C45.98 66.99 45.98 66.99 48 68 C47.690625 67.195625 47.690625 67.195625 47.375 66.375 C46.8685253 63.16732692 47.84599775 60.98682934 49 58 C49.45375 58.66 49.9075 59.32 50.375 60 C50.91125 60.66 51.4475 61.32 52 62 C52.66 62 53.32 62 54 62 C54 61.34 54 60.68 54 60 C53.34 60 52.68 60 52 60 C52 59.34 52 58.68 52 58 C53.32 58 54.64 58 56 58 C56.37125 56.88625 56.37125 56.88625 56.75 55.75 C58.10465039 52.76976913 59.5101541 51.10080748 62 49 C62.66 49 63.32 49 64 49 C64 46.69 64 44.38 64 42 C64.66 42 65.32 42 66 42 C66 41.34 66 40.68 66 40 C67.32 40 68.64 40 70 40 C70 36.7 70 33.4 70 30 C71.32 30 72.64 30 74 30 C73.01 26.04 73.01 26.04 72 22 C76.75 20.875 76.75 20.875 79 22 C79.33 15.4 79.66 8.8 80 2 C78.06125 2.08378906 76.1225 2.16757812 74.125 2.25390625 C49.36415615 3.22950345 24.72135386 2.91102571 0 1 C0 0.67 0 0.34 0 0 Z " fill="#305AF6" transform="translate(262,36)"/>
<path d="M0 0 C0.33 0 0.66 0 1 0 C1.33 46.86 1.66 93.72 2 142 C3.32 141.01 4.64 140.02 6 139 C7.32 139 8.64 139 10 139 C10.495 137.02 10.495 137.02 11 135 C12.98 135 14.96 135 17 135 C17 134.01 17 133.02 17 132 C23.625 130.75 23.625 130.75 27 133 C27 132.34 27 131.68 27 131 C29.64 131 32.28 131 35 131 C35 130.34 35 129.68 35 129 C35.66 129 36.32 129 37 129 C37.12375 128.38125 37.2475 127.7625 37.375 127.125 C38 125 38 125 40 123 C42.1640625 122.8046875 42.1640625 122.8046875 44.625 122.875 C45.44226563 122.89304687 46.25953125 122.91109375 47.1015625 122.9296875 C47.72804687 122.95289063 48.35453125 122.97609375 49 123 C49 122.34 49 121.68 49 121 C49.99 121 50.98 121 52 121 C52.495 119.02 52.495 119.02 53 117 C52.34 117 51.68 117 51 117 C51 116.34 51 115.68 51 115 C56.75 114.875 56.75 114.875 59 116 C59 115.01 59 114.02 59 113 C58.34 113 57.68 113 57 113 C57 111.68 57 110.36 57 109 C61.29 109 65.58 109 70 109 C70 109.33 70 109.66 70 110 C71.65 110.33 73.3 110.66 75 111 C75 110.34 75 109.68 75 109 C76.32 109 77.64 109 79 109 C79 109.66 79 110.32 79 111 C71.71875 114.640625 64.4375 118.28125 57.15625 121.921875 C56.14828369 122.42589844 55.14031738 122.92992187 54.10180664 123.44921875 C52.02299785 124.48854133 49.94405766 125.52760113 47.86499023 126.56640625 C43.4082746 128.79353069 38.95216213 131.02164332 34.50390625 133.265625 C30.67784321 135.19462352 26.84233261 137.10363525 23 139 C22.26072266 139.36673828 21.52144531 139.73347656 20.75976562 140.11132812 C18.44929381 141.25208739 16.13206444 142.37786256 13.8125 143.5 C12.75107788 144.0264209 12.75107788 144.0264209 11.66821289 144.56347656 C8.01961559 146.30832391 5.07139204 147.65499543 1 147 C-1 145 -1 145 -1.24888897 142.50779629 C-1.2483442 141.44903317 -1.24779943 140.39027006 -1.24723816 139.29942322 C-1.25143265 138.08648087 -1.25562714 136.87353851 -1.25994873 135.62384033 C-1.25446488 134.27258221 -1.24878189 132.92132489 -1.24291992 131.57006836 C-1.24399238 130.15269381 -1.24593053 128.73531969 -1.24867249 127.31794739 C-1.25352929 123.46270662 -1.24585512 119.6075812 -1.23571944 115.75235438 C-1.22695397 111.72492393 -1.22869608 107.69749725 -1.2290802 103.6700592 C-1.22814297 96.90689151 -1.2194505 90.14376861 -1.20581055 83.38061523 C-1.19007806 75.55075673 -1.18481263 67.72094729 -1.1855461 59.89107412 C-1.18615551 52.37111218 -1.18105842 44.8511663 -1.17275429 37.33120918 C-1.1692151 34.12507566 -1.16739014 30.91894781 -1.16686058 27.71281242 C-1.16585927 23.94129947 -1.15978007 20.16982805 -1.14969444 16.39832878 C-1.14676285 15.01033787 -1.1455454 13.62234218 -1.14612198 12.2343483 C-1.14660938 10.34742544 -1.14036304 8.46050434 -1.13371277 6.57359314 C-1.13203692 5.51520705 -1.13036108 4.45682096 -1.12863445 3.36636257 C-1 1 -1 1 0 0 Z M22 133 C22 136 22 136 22 136 Z " fill="#1395EB" transform="translate(125,159)"/>
<path d="M0 0 C0.33 0 0.66 0 1 0 C1.33 46.86 1.66 93.72 2 142 C3.65 141.01 5.3 140.02 7 139 C7 140.32 7 141.64 7 143 C8.32 143 9.64 143 11 143 C11 142.34 11 141.68 11 141 C12.8125 139.9375 12.8125 139.9375 15 139 C15.99 139.33 16.98 139.66 18 140 C17.34 140 16.68 140 16 140 C16 140.66 16 141.32 16 142 C14.44424022 142.84584998 12.8800388 143.67618399 11.3125 144.5 C10.44238281 144.9640625 9.57226562 145.428125 8.67578125 145.90625 C5.83994572 147.06542365 4.02865535 147.37148754 1 147 C-1 145 -1 145 -1.24888897 142.50779629 C-1.2483442 141.44903317 -1.24779943 140.39027006 -1.24723816 139.29942322 C-1.25143265 138.08648087 -1.25562714 136.87353851 -1.25994873 135.62384033 C-1.25446488 134.27258221 -1.24878189 132.92132489 -1.24291992 131.57006836 C-1.24399238 130.15269381 -1.24593053 128.73531969 -1.24867249 127.31794739 C-1.25352929 123.46270662 -1.24585512 119.6075812 -1.23571944 115.75235438 C-1.22695397 111.72492393 -1.22869608 107.69749725 -1.2290802 103.6700592 C-1.22814297 96.90689151 -1.2194505 90.14376861 -1.20581055 83.38061523 C-1.19007806 75.55075673 -1.18481263 67.72094729 -1.1855461 59.89107412 C-1.18615551 52.37111218 -1.18105842 44.8511663 -1.17275429 37.33120918 C-1.1692151 34.12507566 -1.16739014 30.91894781 -1.16686058 27.71281242 C-1.16585927 23.94129947 -1.15978007 20.16982805 -1.14969444 16.39832878 C-1.14676285 15.01033787 -1.1455454 13.62234218 -1.14612198 12.2343483 C-1.14660938 10.34742544 -1.14036304 8.46050434 -1.13371277 6.57359314 C-1.13203692 5.51520705 -1.13036108 4.45682096 -1.12863445 3.36636257 C-1 1 -1 1 0 0 Z " fill="#1882DB" transform="translate(125,159)"/>
<path d="M0 0 C0.33 0 0.66 0 1 0 C1 5.28 1 10.56 1 16 C1.66 16.33 2.32 16.66 3 17 C3.66 17.33 4.32 17.66 5 18 C7.25663968 18.07568807 9.51562244 18.08305414 11.7734375 18.0625 C13.28401566 18.05373421 14.7945952 18.04520353 16.30517578 18.03686523 C17.12600647 18.03065155 17.94683716 18.02443787 18.7925415 18.01803589 C39.13508402 17.87596358 59.47252787 18.11570678 79.81250763 18.40527344 C82.12277007 18.43746892 84.43305049 18.46768516 86.74334717 18.49731445 C90.42912082 18.54480545 94.11479782 18.5970344 97.80045319 18.65294075 C99.1720295 18.6731308 100.54362793 18.69187828 101.91524506 18.70907402 C114.86407208 18.87433592 114.86407208 18.87433592 121 20 C121 20.33 121 20.66 121 21 C105.38859768 21.17716054 89.77711878 21.34284121 74.16545296 21.49477577 C66.91703565 21.56558724 59.66869391 21.64018526 52.42041016 21.72363281 C46.10437981 21.79633805 39.78832268 21.86200462 33.47213161 21.91914403 C30.12632797 21.94965967 26.78064534 21.98375037 23.43497086 22.02626419 C19.70422744 22.07190394 15.97357187 22.10510159 12.24267578 22.13525391 C11.12777771 22.1517952 10.01287964 22.16833649 8.86419678 22.18537903 C7.85174896 22.19104385 6.83930115 22.19670868 5.7961731 22.20254517 C4.47155658 22.21637206 4.47155658 22.21637206 3.12018013 22.23047829 C1 22 1 22 -1 20 C-1.24291992 18.04467773 -1.24291992 18.04467773 -1.23046875 15.68359375 C-1.22853516 14.83732422 -1.22660156 13.99105469 -1.22460938 13.11914062 C-1.21236328 12.23419922 -1.20011719 11.34925781 -1.1875 10.4375 C-1.18685547 9.54869141 -1.18621094 8.65988281 -1.18554688 7.74414062 C-1.14021097 1.14021097 -1.14021097 1.14021097 0 0 Z " fill="#5513E4" transform="translate(22,96)"/>
<path d="M0 0 C0.99 0 1.98 0 3 0 C-0.10962442 14.9413661 -7.31280917 27.97257575 -20 37 C-22.203125 36.64453125 -22.203125 36.64453125 -24 36 C-23.34 36 -22.68 36 -22 36 C-22 35.34 -22 34.68 -22 34 C-22.66 34 -23.32 34 -24 34 C-24 33.34 -24 32.68 -24 32 C-23.34 32 -22.68 32 -22 32 C-22 31.34 -22 30.68 -22 30 C-23.98 30.33 -25.96 30.66 -28 31 C-28 30.01 -28 29.02 -28 28 C-27.34 28 -26.68 28 -26 28 C-26 26.68 -26 25.36 -26 24 C-24.68 24 -23.36 24 -22 24 C-22 23.34 -22 22.68 -22 22 C-20.02 22 -18.04 22 -16 22 C-16 21.34 -16 20.68 -16 20 C-14.35 20 -12.7 20 -11 20 C-11 20.66 -11 21.32 -11 22 C-10.01 22 -9.02 22 -8 22 C-8 20.02 -8 18.04 -8 16 C-6.68 16 -5.36 16 -4 16 C-4 14.68 -4 13.36 -4 12 C-3.34 12 -2.68 12 -2 12 C-2.02320313 11.38511719 -2.04640625 10.77023438 -2.0703125 10.13671875 C-2.09738281 8.92435547 -2.09738281 8.92435547 -2.125 7.6875 C-2.14820313 6.88699219 -2.17140625 6.08648437 -2.1953125 5.26171875 C-2 3 -2 3 0 0 Z " fill="#1493F2" transform="translate(228,230)"/>
<path d="M0 0 C0.33 0 0.66 0 1 0 C1 5.28 1 10.56 1 16 C1.66 16.33 2.32 16.66 3 17 C3.66 17.33 4.32 17.66 5 18 C8.03916068 18.06278483 11.05557753 18.06681385 14.09375 18.02734375 C15.94661273 18.01470007 17.79947741 18.00233892 19.65234375 17.99023438 C22.58225507 17.96537124 25.51206659 17.93736281 28.44189453 17.90405273 C31.26335306 17.87394643 34.0846826 17.85610652 36.90625 17.83984375 C37.78647827 17.82638412 38.66670654 17.8129245 39.5736084 17.79905701 C41.71676742 17.79016385 43.85986514 17.88584012 46 18 C46.66 18.66 47.32 19.32 48 20 C8.69343638 22.78433834 8.69343638 22.78433834 1 22 C-1 20 -1 20 -1.24291992 18.04467773 C-1.23881104 17.26552002 -1.23470215 16.4863623 -1.23046875 15.68359375 C-1.22853516 14.83732422 -1.22660156 13.99105469 -1.22460938 13.11914062 C-1.21236328 12.23419922 -1.20011719 11.34925781 -1.1875 10.4375 C-1.18685547 9.54869141 -1.18621094 8.65988281 -1.18554688 7.74414062 C-1.14021097 1.14021097 -1.14021097 1.14021097 0 0 Z " fill="#730AEB" transform="translate(22,96)"/>
<path d="M0 0 C0.99 0 1.98 0 3 0 C3 0.66 3 1.32 3 2 C-9.13151925 8.39528782 -19.71896704 10.16705469 -33.28125 10.09765625 C-34.33534058 10.0962413 -35.38943115 10.09482635 -36.47546387 10.09336853 C-39.81700571 10.08780508 -43.15847867 10.07525941 -46.5 10.0625 C-48.77604069 10.05748027 -51.05208245 10.0529182 -53.328125 10.04882812 C-58.88543987 10.03784764 -64.44271501 10.02114622 -70 10 C-67.07119067 8.32199006 -65.05556541 7.76338658 -61.69042969 7.86474609 C-60.4295755 7.89500381 -60.4295755 7.89500381 -59.14324951 7.9258728 C-57.79616913 7.97416733 -57.79616913 7.97416733 -56.421875 8.0234375 C-55.03201385 8.06097641 -55.03201385 8.06097641 -53.61407471 8.09927368 C-50.65900399 8.18134687 -47.70461426 8.27798568 -44.75 8.375 C-42.74481935 8.4332525 -40.73961087 8.49055551 -38.734375 8.546875 C-33.82252605 8.68690692 -28.91123749 8.84000218 -24 9 C-24 8.01 -24 7.02 -24 6 C-19.126739 4.4087311 -15.19209404 3.78807779 -10 4 C-10 3.34 -10 2.68 -10 2 C-6.66666667 2 -3.33333333 2 0 2 C0 1.34 0 0.68 0 0 Z " fill="#567FF1" transform="translate(302,108)"/>
<path d="M0 0 C0.680625 0.99 0.680625 0.99 1.375 2 C1.91125 2.66 2.4475 3.32 3 4 C3.66 4 4.32 4 5 4 C5 3.34 5 2.68 5 2 C4.34 2 3.68 2 3 2 C3 1.34 3 0.68 3 0 C5.64 0 8.28 0 11 0 C8.10266275 6.4764009 2.24096906 11.74384223 -4 15 C-6.875 14.75 -6.875 14.75 -9 14 C-9 14.66 -9 15.32 -9 16 C-11.31 16.66 -13.62 17.32 -16 18 C-17 17 -17 17 -17.0625 14.4375 C-17.041875 13.633125 -17.02125 12.82875 -17 12 C-14.98177083 12.03255208 -12.96354167 12.06510417 -10.9453125 12.09765625 C-8.91814596 12.12649242 -8.91814596 12.12649242 -7 11 C-6.34 10.01 -5.68 9.02 -5 8 C-3.68 8.66 -2.36 9.32 -1 10 C-1.20625 9.46375 -1.4125 8.9275 -1.625 8.375 C-2.1314747 5.16732692 -1.15400225 2.98682934 0 0 Z " fill="#175FE9" transform="translate(311,94)"/>
<path d="M0 0 C22.77 0 45.54 0 69 0 C69.495 1.485 69.495 1.485 70 3 C69.34 3 68.68 3 68 3 C68.061875 4.19625 68.12375 5.3925 68.1875 6.625 C68.20943937 10.73497595 67.13130434 13.4478261 65 17 C64.67 17 64.34 17 64 17 C64 11.72 64 6.44 64 1 C62.06125 1.08378906 60.1225 1.16757812 58.125 1.25390625 C38.68821776 2.01773855 19.43264166 1.86111284 0 1 C0 0.67 0 0.34 0 0 Z " fill="#2842E0" transform="translate(278,37)"/>
<path d="M0 0 C0.87430664 -0.00315216 1.74861328 -0.00630432 2.64941406 -0.009552 C3.59526367 -0.00752777 4.54111328 -0.00550354 5.515625 -0.00341797 C6.48467773 -0.00437469 7.45373047 -0.00533142 8.45214844 -0.00631714 C10.50325587 -0.00699836 12.55436545 -0.00514808 14.60546875 -0.00097656 C17.75265323 0.00437248 20.89969498 -0.00092351 24.046875 -0.00732422 C26.03645865 -0.00666343 28.02604221 -0.00538224 30.015625 -0.00341797 C30.96147461 -0.0054422 31.90732422 -0.00746643 32.88183594 -0.009552 C33.75614258 -0.00639984 34.63044922 -0.00324768 35.53125 0 C36.68802246 0.00119339 36.68802246 0.00119339 37.86816406 0.00241089 C39.765625 0.12939453 39.765625 0.12939453 41.765625 1.12939453 C41.765625 1.78939453 41.765625 2.44939453 41.765625 3.12939453 C26.255625 3.12939453 10.745625 3.12939453 -5.234375 3.12939453 C-5.564375 2.46939453 -5.894375 1.80939453 -6.234375 1.12939453 C-3.91596516 -0.02981039 -2.57998369 0.00266165 0 0 Z " fill="#2045EC" transform="translate(236.234375,113.87060546875)"/>
<path d="M0 0 C4.29 0 8.58 0 13 0 C12.67 1.32 12.34 2.64 12 4 C11.34 4 10.68 4 10 4 C10 4.66 10 5.32 10 6 C8.68 6 7.36 6 6 6 C6 6.66 6 7.32 6 8 C4.68 8 3.36 8 2 8 C2 8.66 2 9.32 2 10 C-0.31 10.66 -2.62 11.32 -5 12 C-4.67 10.68 -4.34 9.36 -4 8 C-4.66 8 -5.32 8 -6 8 C-6 7.34 -6 6.68 -6 6 C-0.25 5.875 -0.25 5.875 2 7 C2 6.01 2 5.02 2 4 C1.34 4 0.68 4 0 4 C0 2.68 0 1.36 0 0 Z " fill="#0E9BFA" transform="translate(182,268)"/>
<path d="M0 0 C0.66 0.99 1.32 1.98 2 3 C2.66 2.34 3.32 1.68 4 1 C4.66 1.33 5.32 1.66 6 2 C6.24042276 6.08718695 5.42258812 9.17679443 4 13 C4.66 13 5.32 13 6 13 C6 13.66 6 14.32 6 15 C3.03 15.66 0.06 16.32 -3 17 C-2.22095672 5.47835991 -2.22095672 5.47835991 0 0 Z " fill="#9C23F5" transform="translate(24,75)"/>
<path d="M0 0 C1.98 0 3.96 0 6 0 C6 3.3 6 6.6 6 10 C4.35 10.66 2.7 11.32 1 12 C0.67 10.68 0.34 9.36 0 8 C-1.98 8.33 -3.96 8.66 -6 9 C-6 8.01 -6 7.02 -6 6 C-5.34 6 -4.68 6 -4 6 C-4 4.68 -4 3.36 -4 2 C-2.68 2 -1.36 2 0 2 C0 1.34 0 0.68 0 0 Z " fill="#1096FA" transform="translate(206,252)"/>
<path d="M0 0 C-0.33 0.61875 -0.66 1.2375 -1 1.875 C-2.14193235 3.91018344 -2.14193235 3.91018344 -2 6 C-2.99 6 -3.98 6 -5 6 C-3.68 6.66 -2.36 7.32 -1 8 C-4.465 9.485 -4.465 9.485 -8 11 C-8.33 10.34 -8.66 9.68 -9 9 C-10.32 9.33 -11.64 9.66 -13 10 C-13 10.66 -13 11.32 -13 12 C-14.32 12 -15.64 12 -17 12 C-17 10.68 -17 9.36 -17 8 C-16.01 8 -15.02 8 -14 8 C-13.67 6.68 -13.34 5.36 -13 4 C-11.02 4 -9.04 4 -7 4 C-7 3.01 -7 2.02 -7 1 C-4.53721199 -0.231394 -2.7204945 -0.07159196 0 0 Z " fill="#1CA3FB" transform="translate(149,290)"/>
<path d="M0 0 C0.66 0.66 1.32 1.32 2 2 C4.43252661 2.46162427 4.43252661 2.46162427 7.125 2.625 C8.03507813 2.69976562 8.94515625 2.77453125 9.8828125 2.8515625 C10.58148438 2.90054688 11.28015625 2.94953125 12 3 C12 3.33 12 3.66 12 4 C10.88625 4.0825 9.7725 4.165 8.625 4.25 C5.02533306 4.60939785 5.02533306 4.60939785 3.5 6.75 C2.89658788 9.46535456 3.26111697 11.34002109 4 14 C2.68 14.33 1.36 14.66 0 15 C-0.33 14.34 -0.66 13.68 -1 13 C-1.66 14.65 -2.32 16.3 -3 18 C-3.33 18 -3.66 18 -4 18 C-4.51137226 11.09647445 -2.86964374 6.25172386 0 0 Z " fill="#114BF1" transform="translate(130,140)"/>
<path d="M0 0 C1.65 0 3.3 0 5 0 C4.67 1.32 4.34 2.64 4 4 C4.66 4 5.32 4 6 4 C6 5.32 6 6.64 6 8 C5.34 8 4.68 8 4 8 C4 9.32 4 10.64 4 12 C2.02 12.33 0.04 12.66 -2 13 C-2 11.35 -2 9.7 -2 8 C-2.66 8 -3.32 8 -4 8 C-4 6.02 -4 4.04 -4 2 C-3.34 2 -2.68 2 -2 2 C-2 2.66 -2 3.32 -2 4 C-1.34 3.34 -0.68 2.68 0 2 C0 1.34 0 0.68 0 0 Z " fill="#0C88FB" transform="translate(220,234)"/>
<path d="M0 0 C0.66 0 1.32 0 2 0 C2 0.99 2 1.98 2 3 C1.34 3 0.68 3 0 3 C0 4.32 0 5.64 0 7 C1.32 7 2.64 7 4 7 C3.1875 8.9375 3.1875 8.9375 2 11 C1.01 11.33 0.02 11.66 -1 12 C-0.34 12.66 0.32 13.32 1 14 C0 15 0 15 -2.5625 15.0625 C-3.366875 15.041875 -4.17125 15.02125 -5 15 C-5.66 16.32 -6.32 17.64 -7 19 C-7.82808784 11.21597429 -4.19725816 6.29588723 0 0 Z " fill="#9611F2" transform="translate(32,61)"/>
<path d="M0 0 C1.32 0.33 2.64 0.66 4 1 C4.76547502 7.31516888 2.03020704 12.26751412 -0.5 17.875 C-0.92925781 18.84953125 -1.35851562 19.8240625 -1.80078125 20.828125 C-2.85746325 23.22327086 -3.9240544 25.61346109 -5 28 C-5.66 27.67 -6.32 27.34 -7 27 C-6.71872579 25.51882199 -6.42466268 24.04006751 -6.125 22.5625 C-5.96257812 21.73878906 -5.80015625 20.91507813 -5.6328125 20.06640625 C-5.42398437 19.38449219 -5.21515625 18.70257813 -5 18 C-4.34 17.67 -3.68 17.34 -3 17 C-0.83215959 12.79183921 -0.47232999 8.64457826 0 4 C0.66 4 1.32 4 2 4 C1.34 2.68 0.68 1.36 0 0 Z " fill="#3F6AE8" transform="translate(346,36)"/>
<path d="M0 0 C0.66 0.33 1.32 0.66 2 1 C-4.72268908 11.48739496 -4.72268908 11.48739496 -8 14 C-9.32 14 -10.64 14 -12 14 C-11.35241592 10.50304596 -10.09758712 7.87447123 -8 5 C-5.8125 4.1875 -5.8125 4.1875 -4 4 C-4 3.01 -4 2.02 -4 1 C-3.01 1.33 -2.02 1.66 -1 2 C-0.67 1.34 -0.34 0.68 0 0 Z " fill="#2C6EF1" transform="translate(330,81)"/>
<path d="M0 0 C0.99 0 1.98 0 3 0 C1.41856908 7.59858273 -0.40697832 14.61827681 -5 21 C-5.66 21.33 -6.32 21.66 -7 22 C-7.33 20.02 -7.66 18.04 -8 16 C-6.68 16 -5.36 16 -4 16 C-4 14.68 -4 13.36 -4 12 C-3.34 12 -2.68 12 -2 12 C-2.02320313 11.38511719 -2.04640625 10.77023438 -2.0703125 10.13671875 C-2.08835938 9.32847656 -2.10640625 8.52023438 -2.125 7.6875 C-2.14820313 6.88699219 -2.17140625 6.08648437 -2.1953125 5.26171875 C-2 3 -2 3 0 0 Z " fill="#2F99EE" transform="translate(228,230)"/>
<path d="M0 0 C8.91 0 17.82 0 27 0 C26.01 0.33 25.02 0.66 24 1 C23.67 1.99 23.34 2.98 23 4 C15.21191437 3.48351265 7.65074958 2.55123466 0 1 C0 0.67 0 0.34 0 0 Z " fill="#4022F1" transform="translate(136,115)"/>
<path d="M0 0 C0.99 0.99 1.98 1.98 3 3 C2.67 3.33 2.34 3.66 2 4 C2.66 4.66 3.32 5.32 4 6 C0.98968256 6.93423645 0.13349732 7.04449911 -3 6 C-3 6.66 -3 7.32 -3 8 C-5.31 8.66 -7.62 9.32 -10 10 C-11 9 -11 9 -11.0625 6.4375 C-11.041875 5.633125 -11.02125 4.82875 -11 4 C-8.98177083 4.03255208 -6.96354167 4.06510417 -4.9453125 4.09765625 C-2.91814596 4.12649242 -2.91814596 4.12649242 -1 3 C-0.67 2.01 -0.34 1.02 0 0 Z " fill="#1D5EF8" transform="translate(305,102)"/>
<path d="M0 0 C1.98 0 3.96 0 6 0 C6 0.66 6 1.32 6 2 C5.34 2 4.68 2 4 2 C4.061875 3.19625 4.12375 4.3925 4.1875 5.625 C4.20943937 9.73497595 3.13130434 12.4478261 1 16 C0.67 16 0.34 16 0 16 C0 10.72 0 5.44 0 0 Z " fill="#1B51F8" transform="translate(342,38)"/>
<path d="M0 0 C1.32 0 2.64 0 4 0 C4 0.66 4 1.32 4 2 C1.39704724 3.31495542 -1.20728033 4.62704986 -3.8125 5.9375 C-4.55048828 6.31068359 -5.28847656 6.68386719 -6.04882812 7.06835938 C-6.76103516 7.42607422 -7.47324219 7.78378906 -8.20703125 8.15234375 C-9.18893433 8.6472229 -9.18893433 8.6472229 -10.19067383 9.15209961 C-12 10 -12 10 -15 11 C-14.67 10.01 -14.34 9.02 -14 8 C-13.34 8 -12.68 8 -12 8 C-12 7.34 -12 6.68 -12 6 C-10.68 6 -9.36 6 -8 6 C-8 5.34 -8 4.68 -8 4 C-7.34 4 -6.68 4 -6 4 C-6 3.34 -6 2.68 -6 2 C-4.02 2 -2.04 2 0 2 C0 1.34 0 0.68 0 0 Z " fill="#289DEE" transform="translate(200,268)"/>
<path d="M0 0 C1.29035156 0.00902344 2.58070313 0.01804687 3.91015625 0.02734375 C7.06530249 0.0507152 10.22004926 0.08347909 13.375 0.125 C13.375 0.455 13.375 0.785 13.375 1.125 C5.125 1.125 -3.125 1.125 -11.625 1.125 C-11.625 1.785 -11.625 2.445 -11.625 3.125 C-15.585 3.125 -19.545 3.125 -23.625 3.125 C-23.955 3.785 -24.285 4.445 -24.625 5.125 C-24.625 4.135 -24.625 3.145 -24.625 2.125 C-16.39048242 -0.00631517 -8.4684457 -0.11337775 0 0 Z " fill="#1612E3" transform="translate(177.625,116.875)"/>
<path d="M0 0 C0.33 0 0.66 0 1 0 C1 5.28 1 10.56 1 16 C1.66 16.33 2.32 16.66 3 17 C2.67 18.65 2.34 20.3 2 22 C1.01 21.34 0.02 20.68 -1 20 C-1.35644531 18.04467773 -1.35644531 18.04467773 -1.328125 15.68359375 C-1.32039063 14.41418945 -1.32039063 14.41418945 -1.3125 13.11914062 C-1.291875 12.23419922 -1.27125 11.34925781 -1.25 10.4375 C-1.24484375 9.54869141 -1.2396875 8.65988281 -1.234375 7.74414062 C-1.15394546 1.15394546 -1.15394546 1.15394546 0 0 Z " fill="#8717EE" transform="translate(22,96)"/>
<path d="M0 0 C0.33 1.32 0.66 2.64 1 4 C2.32 4 3.64 4 5 4 C5 3.34 5 2.68 5 2 C6.8125 0.9375 6.8125 0.9375 9 0 C9.99 0.33 10.98 0.66 12 1 C11.34 1 10.68 1 10 1 C10 1.66 10 2.32 10 3 C2.6302149 7.46015566 2.6302149 7.46015566 -2 6.75 C-2.99 6.5025 -3.98 6.255 -5 6 C-3.63016497 2.83884224 -3.0109362 2.0072908 0 0 Z " fill="#1398EF" transform="translate(131,298)"/>
<path d="M0 0 C1.32 0.33 2.64 0.66 4 1 C4 1.99 4 2.98 4 4 C-0.0271824 6.20536179 -3.43545749 7.45660208 -8 8 C-8 7.34 -8 6.68 -8 6 C-7.01 5.67 -6.02 5.34 -5 5 C-4.67 4.01 -4.34 3.02 -4 2 C-2.68 2 -1.36 2 0 2 C0 1.34 0 0.68 0 0 Z " fill="#0F97EE" transform="translate(152,290)"/>
<path d="M0 0 C-2.44284311 2.44284311 -5.07455194 4.17159496 -8 6 C-8.66 6 -9.32 6 -10 6 C-10 6.66 -10 7.32 -10 8 C-10.66 8 -11.32 8 -12 8 C-12 8.66 -12 9.32 -12 10 C-12.66 10 -13.32 10 -14 10 C-14.66 11.32 -15.32 12.64 -16 14 C-16.66 13.34 -17.32 12.68 -18 12 C-16.21135158 10.18443212 -14.41928379 8.37248378 -12.625 6.5625 C-12.11710938 6.04623047 -11.60921875 5.52996094 -11.0859375 4.99804688 C-7.16653336 1.05285718 -5.53401554 -0.14563199 0 0 Z " fill="#0F0FD5" transform="translate(152,122)"/>
<path d="M0 0 C0.66 0.66 1.32 1.32 2 2 C0.02 6.29 -1.96 10.58 -4 15 C-4.66 14.67 -5.32 14.34 -6 14 C-5.71872579 12.51882199 -5.42466268 11.04006751 -5.125 9.5625 C-4.96257812 8.73878906 -4.80015625 7.91507813 -4.6328125 7.06640625 C-4.42398437 6.38449219 -4.21515625 5.70257813 -4 5 C-3.34 4.67 -2.68 4.34 -2 4 C-0.86649466 1.98330173 -0.86649466 1.98330173 0 0 Z " fill="#5583EB" transform="translate(345,49)"/>
<path d="M0 0 C2.86724686 0.57344937 3.8614515 0.8614515 6 3 C0.555 5.475 0.555 5.475 -5 8 C-5.66 7.34 -6.32 6.68 -7 6 C-5.35 5.67 -3.7 5.34 -2 5 C-2 4.34 -2 3.68 -2 3 C-1.34 3 -0.68 3 0 3 C0 2.01 0 1.02 0 0 Z " fill="#2FA6EF" transform="translate(162,285)"/>
<path d="M0 0 C2.64 0 5.28 0 8 0 C8 1.32 8 2.64 8 4 C5.1875 4.6875 5.1875 4.6875 2 5 C0.125 3.5625 0.125 3.5625 -1 2 C-0.67 1.34 -0.34 0.68 0 0 Z " fill="#119BF8" transform="translate(164,282)"/>
<path d="M0 0 C0.33 0.66 0.66 1.32 1 2 C1.66 2 2.32 2 3 2 C3 2.66 3 3.32 3 4 C2.34 4 1.68 4 1 4 C1 4.66 1 5.32 1 6 C-3.455 6.495 -3.455 6.495 -8 7 C-5.42215154 4.35247996 -3.08351902 2.05567935 0 0 Z " fill="#9E2FEF" transform="translate(47,46)"/>
<path d="M0 0 C0.33 1.32 0.66 2.64 1 4 C-0.32 4 -1.64 4 -3 4 C-2.67 5.32 -2.34 6.64 -2 8 C-3.32 8.33 -4.64 8.66 -6 9 C-6.20086443 5.28400809 -6.1519437 4.22791555 -4 1 C-1.875 0.3125 -1.875 0.3125 0 0 Z " fill="#1323DE" transform="translate(137,134)"/>
<path d="M0 0 C7.75 -0.125 7.75 -0.125 10 1 C10 1.66 10 2.32 10 3 C6.7 3 3.4 3 0 3 C0 2.01 0 1.02 0 0 Z " fill="#1B5BF4" transform="translate(278,114)"/>
<path d="M0 0 C-1 4 -1 4 -2 8 C-2.66 8 -3.32 8 -4 8 C-4.66 5.36 -5.32 2.72 -6 0 C-2 -1 -2 -1 0 0 Z " fill="#1E5CF9" transform="translate(340,58)"/>
<path d="M0 0 C0.99 0 1.98 0 3 0 C1.14285714 8.71428571 1.14285714 8.71428571 -2 11 C-2.25 3.375 -2.25 3.375 0 0 Z " fill="#2489E9" transform="translate(228,230)"/>
<path d="M0 0 C2.31 0 4.62 0 7 0 C5.38405168 2.04119788 3.7143618 4.04072937 2 6 C1.34 6 0.68 6 0 6 C0 4.02 0 2.04 0 0 Z " fill="#990FFB" transform="translate(46,52)"/>
<path d="M0 0 C0.45375 0.66 0.9075 1.32 1.375 2 C1.91125 2.66 2.4475 3.32 3 4 C3.66 4 4.32 4 5 4 C5 4.66 5 5.32 5 6 C2 8 2 8 -2 8 C-1.125 1.125 -1.125 1.125 0 0 Z " fill="#1561FC" transform="translate(311,94)"/>
<path d="M0 0 C0 1.32 0 2.64 0 4 C-0.66 4 -1.32 4 -2 4 C-2.33 4.99 -2.66 5.98 -3 7 C-3.99 7.33 -4.98 7.66 -6 8 C-6 7.34 -6 6.68 -6 6 C-5.34 6 -4.68 6 -4 6 C-4.33 4.35 -4.66 2.7 -5 1 C-2 0 -2 0 0 0 Z " fill="#9B1EF9" transform="translate(38,58)"/>
<path d="M0 0 C-1.32 1.65 -2.64 3.3 -4 5 C-4.99 4.67 -5.98 4.34 -7 4 C-7 3.01 -7 2.02 -7 1 C-4.53721199 -0.231394 -2.7204945 -0.07159196 0 0 Z " fill="#1399F8" transform="translate(149,290)"/>
<path d="M0 0 C0.99 0 1.98 0 3 0 C3 0.66 3 1.32 3 2 C4.65 1.67 6.3 1.34 8 1 C6.25 3.0625 6.25 3.0625 4 5 C1.75 4.75 1.75 4.75 0 4 C0.66 4 1.32 4 2 4 C2 3.34 2 2.68 2 2 C1.34 2 0.68 2 0 2 C0 1.34 0 0.68 0 0 Z " fill="#289DED" transform="translate(204,262)"/>
<path d="M0 0 C0.99 0.99 1.98 1.98 3 3 C2.67 3.33 2.34 3.66 2 4 C2.66 4.66 3.32 5.32 4 6 C0.98968256 6.93423645 0.13349732 7.04449911 -3 6 C-3 5.34 -3 4.68 -3 4 C-2.34 3.67 -1.68 3.34 -1 3 C-0.67 2.01 -0.34 1.02 0 0 Z " fill="#2D71FA" transform="translate(305,102)"/>
<path d="M0 0 C0.66 0.99 1.32 1.98 2 3 C2.66 2.34 3.32 1.68 4 1 C4.33 2.65 4.66 4.3 5 6 C3.68 6.33 2.36 6.66 1 7 C-0.0625 5.1875 -0.0625 5.1875 -1 3 C-0.67 2.01 -0.34 1.02 0 0 Z " fill="#A12AFC" transform="translate(24,75)"/>
<path d="M0 0 C3.3 0.33 6.6 0.66 10 1 C10 1.33 10 1.66 10 2 C8.3603125 2.2165625 8.3603125 2.2165625 6.6875 2.4375 C3.06877013 2.88288104 3.06877013 2.88288104 0 4 C0 2.68 0 1.36 0 0 Z " fill="#1840FB" transform="translate(132,142)"/>
<path d="M0 0 C0.66 0 1.32 0 2 0 C1.67 1.98 1.34 3.96 1 6 C0.34 6 -0.32 6 -1 6 C-1 5.34 -1 4.68 -1 4 C-1.99 4 -2.98 4 -4 4 C-4 3.34 -4 2.68 -4 2 C-2.68 2 -1.36 2 0 2 C0 1.34 0 0.68 0 0 Z " fill="#3171F1" transform="translate(332,74)"/>
<path d="M0 0 C0.66 0 1.32 0 2 0 C1.25 6.75 1.25 6.75 -1 9 C-1.125 2.25 -1.125 2.25 0 0 Z " fill="#8A13E5" transform="translate(26,71)"/>
<path d="M0 0 C3.3 0 6.6 0 10 0 C8.515 1.485 8.515 1.485 7 3 C4.69 2.34 2.38 1.68 0 1 C0 0.67 0 0.34 0 0 Z " fill="#4330D8" transform="translate(148,116)"/>
<path d="M0 0 C0.86625 0.3403125 0.86625 0.3403125 1.75 0.6875 C0 2.25 0 2.25 -2.25 3.6875 C-4.5 3.375 -4.5 3.375 -6.25 2.6875 C-2.80384615 -0.38942308 -2.80384615 -0.38942308 0 0 Z " fill="#2666E4" transform="translate(312.25,103.3125)"/>
<path d="M0 0 C0.66 0 1.32 0 2 0 C2 0.99 2 1.98 2 3 C2.66 3.33 3.32 3.66 4 4 C2.35 4.33 0.7 4.66 -1 5 C-1.33 4.01 -1.66 3.02 -2 2 C-1.34 1.34 -0.68 0.68 0 0 Z " fill="#2F77FB" transform="translate(320,90)"/>
</svg>
